<svg width="20" height="14" viewBox="0 0 20 14" fill="none" xmlns="http://www.w3.org/2000/svg">
<path fill-rule="evenodd" clip-rule="evenodd" d="M0.25 7C0.25 5.20979 0.961159 3.4929 2.22703 2.22703C3.4929 0.961159 5.20979 0.25 7 0.25H15C16.2598 0.25 17.468 0.750445 18.3588 1.64124C19.2496 2.53204 19.75 3.74022 19.75 5C19.75 6.25978 19.2496 7.46796 18.3588 8.35876C17.468 9.24955 16.2598 9.75 15 9.75H6.857C6.12766 9.75 5.42818 9.46027 4.91246 8.94454C4.39673 8.42882 4.107 7.72935 4.107 7C4.107 6.27065 4.39673 5.57118 4.91246 5.05546C5.42818 4.53973 6.12766 4.25 6.857 4.25H14.714C14.9129 4.25 15.1037 4.32902 15.2443 4.46967C15.385 4.61032 15.464 4.80109 15.464 5C15.464 5.19891 15.385 5.38968 15.2443 5.53033C15.1037 5.67098 14.9129 5.75 14.714 5.75H6.857C6.52548 5.75 6.20754 5.8817 5.97312 6.11612C5.7387 6.35054 5.607 6.66848 5.607 7C5.607 7.33152 5.7387 7.64946 5.97312 7.88388C6.20754 8.1183 6.52548 8.25 6.857 8.25H15C15.862 8.25 16.6886 7.90759 17.2981 7.2981C17.9076 6.6886 18.25 5.86195 18.25 5C18.25 4.13805 17.9076 3.3114 17.2981 2.7019C16.6886 2.09241 15.862 1.75 15 1.75H7C5.60761 1.75 4.27225 2.30312 3.28769 3.28769C2.30312 4.27225 1.75 5.60761 1.75 7C1.75 8.39239 2.30312 9.72775 3.28769 10.7123C4.27225 11.6969 5.60761 12.25 7 12.25H14.714C14.9129 12.25 15.1037 12.329 15.2443 12.4697C15.385 12.6103 15.464 12.8011 15.464 13C15.464 13.1989 15.385 13.3897 15.2443 13.5303C15.1037 13.671 14.9129 13.75 14.714 13.75H7C5.20979 13.75 3.4929 13.0388 2.22703 11.773C0.961159 10.5071 0.25 8.79021 0.25 7Z" fill="black"/>
</svg>
