<svg width="20" height="18" viewBox="0 0 20 18" fill="none" xmlns="http://www.w3.org/2000/svg">
<path d="M10.3124 0.470642C5.40174 0.470642 1.40611 3.86939 1.40611 8.04814C1.43361 9.81939 2.12486 11.4244 3.24236 12.6294L3.23861 12.625C2.86549 14.2531 2.04674 15.6525 0.918613 16.7306L0.915488 16.7338C0.832988 16.8181 0.781738 16.9338 0.781738 17.0619C0.781738 17.3206 0.991738 17.5306 1.25049 17.5313C1.28424 17.5313 1.31736 17.5275 1.34924 17.5206L1.34611 17.5213C3.51486 17.1719 5.43736 16.3088 7.04549 15.0613L7.01736 15.0825C7.99799 15.4275 9.12861 15.6269 10.3061 15.6269C10.3086 15.6269 10.3117 15.6269 10.3142 15.6269H10.3136C15.2242 15.6269 19.2199 12.2275 19.2199 8.04877C19.2199 3.87002 15.2242 0.471267 10.3136 0.471267L10.3124 0.470642ZM10.3124 14.6888C10.3024 14.6888 10.2905 14.6888 10.2786 14.6888C9.13361 14.6888 8.03736 14.4813 7.02549 14.1013L7.08924 14.1225C7.05299 14.1113 7.01049 14.1044 6.96736 14.1038H6.96674C6.95424 14.1025 6.94424 14.0981 6.93174 14.0981C6.81611 14.0981 6.71049 14.1406 6.62861 14.2106L6.62924 14.21C6.62299 14.215 6.61424 14.2125 6.60799 14.2181C5.48486 15.1675 4.12674 15.8763 2.63486 16.245L2.56736 16.2594C3.37361 15.2388 3.95174 14.0013 4.20424 12.6488L4.21236 12.5969C4.21236 12.5931 4.21236 12.5881 4.21236 12.5838C4.21236 12.5706 4.21174 12.5569 4.21049 12.5438V12.5456C4.21049 12.5425 4.21049 12.5394 4.21049 12.5363C4.21049 12.5244 4.20986 12.5131 4.20924 12.5019V12.5031C4.20674 12.39 4.16361 12.2875 4.09424 12.2094L4.09486 12.21L4.08799 12.1931C3.02299 11.1325 2.35861 9.66939 2.34361 8.05189V8.04877C2.34361 4.38752 5.91861 1.40877 10.3124 1.40877C14.7061 1.40877 18.2811 4.38752 18.2811 8.04877C18.2811 11.7106 14.7067 14.6894 10.3124 14.6894V14.6888Z" fill="black"/>
</svg>
