<svg width="18" height="16" viewBox="0 0 18 16" fill="none" xmlns="http://www.w3.org/2000/svg">
<path d="M12.6787 1.19687C14.8793 1.19687 16.6637 2.98125 16.6637 5.18187C16.6637 6.3125 16.1924 7.33125 15.4362 8.05687L9.00055 14.525L2.44805 7.94C1.76055 7.22375 1.3368 6.25312 1.3368 5.18187C1.3368 2.98062 3.12117 1.19687 5.3218 1.19687C6.9793 1.19687 8.39992 2.20937 9.00055 3.64937C9.60117 2.20937 11.0218 1.19687 12.6793 1.19687H12.6787ZM12.6787 0.530624C11.213 0.530624 9.8668 1.21125 8.99992 2.33312C8.13367 1.21125 6.78742 0.530624 5.32117 0.530624C2.75617 0.530624 0.669922 2.6175 0.669922 5.18187C0.669922 6.38687 1.13055 7.53062 1.9668 8.40187L8.99992 15.47L15.908 8.5275C16.8205 7.65125 17.3299 6.46 17.3299 5.1825C17.3299 2.6175 15.243 0.53125 12.6787 0.53125V0.530624Z" fill="black"/>
</svg>
